# xmcd
#
# Track frame offsets:
#	150
#	19595
#	35455
#	56900
#	78122
#	94637
#	114232
#	131407
#	149782
#	170692
#
# Disc length: 2539 seconds
#
# Revision: 0
# Processed by: cddbd v1.5.2PL0 Copyright (c) Steve Scherf et al.
# Submitted via: EasyCDDAExtractor 16.0.9.1
#
DISCID=8009e90a
DTITLE=Lưu Bích - KH32: Hãy Nói Yêu Em Đêm Nay
DYEAR=1996
DGENRE=Pop
TTITLE0=Hãy Nói Yêu Em Đêm Nay ©
TTITLE1=Hoa Nào Không Phai
TTITLE2=Mùa Xuân Trong Đôi Mắt Em
TTITLE3=Cơn Mưa Tình
TTITLE4=Khúc Thụy Du
TTITLE5=Kỷ Niệm Trong Tôi
TTITLE6=Tình Đã Phai
TTITLE7=Cho Lần Cuối
TTITLE8=Thu Vàng Trên Lối
TTITLE9=Hoa Vàng Mấy Độ
EXTD=
EXTT0=
EXTT1=
EXTT2=
EXTT3=
EXTT4=
EXTT5=
EXTT6=
EXTT7=
EXTT8=
EXTT9=
PLAYORDER=
